
<svg xmlns="http://www.w3.org/2000/svg"  viewBox="0 0 1000 1742.8571428571436" style="overflow: hidden;border: 2px solid #888888;"> 
<text dominant-baseline="middle"  x="147.308885" y="1486.845468" font-size="30">Enter1</text>
<text dominant-baseline="middle"  x="433.023171" y="1486.845468" font-size="30">I1</text>
<text dominant-baseline="middle"  x="504.451742" y="1486.845468" font-size="30">P1</text>
<text dominant-baseline="middle"  x="504.451742" y="1415.416896" font-size="30">I2</text>
<text dominant-baseline="middle"  x="504.451742" y="58.274039" font-size="30">G1</text>
<text dominant-baseline="middle"  x="461.594599" y="272.559753" font-size="30">CM1</text>
<text dominant-baseline="middle"  x="504.451742" y="1058.274039" font-size="30">M1</text>
<text dominant-baseline="middle"  x="504.451742" y="1201.131182" font-size="30">P2</text>
<text dominant-baseline="middle"  x="575.880314" y="772.559753" font-size="30">L1</text>
<text dominant-baseline="middle"  x="575.880314" y="486.845468" font-size="30">M2</text>
<text dominant-baseline="middle"  x="718.737457" y="486.845468" font-size="30">M3</text>
<text dominant-baseline="middle"  x="718.737457" y="843.988325" font-size="30">TS1</text>
<text dominant-baseline="middle"  x="633.023171" y="486.845468" font-size="30">M5</text>
<text dominant-baseline="middle"  x="633.023171" y="729.702610" font-size="30">L2</text>
<text dominant-baseline="middle"  x="633.023171" y="1515.416896" font-size="30">I3</text>
<text dominant-baseline="middle"  x="633.023171" y="1558.274039" font-size="30">M6</text>
<text dominant-baseline="middle"  x="418.737457" y="1558.274039" font-size="30">M7</text>
<text dominant-baseline="middle"  x="418.737457" y="1586.845468" font-size="30">I4</text>
<text dominant-baseline="middle"  x="418.737457" y="1643.988325" font-size="30">SP1</text>
<text dominant-baseline="middle"  x="318.737457" y="1643.988325" font-size="30">PockelsCell</text>
<text dominant-baseline="middle"  x="204.451742" y="1643.988325" font-size="30">M8</text>
<text dominant-baseline="middle"  x="518.737457" y="1643.988325" font-size="30">I5</text>
<text dominant-baseline="middle"  x="561.594599" y="1643.988325" font-size="30">L3</text>
<text dominant-baseline="middle"  x="704.451742" y="1643.988325" font-size="30">M9</text>
<text dominant-baseline="middle"  x="704.451742" y="1586.845468" font-size="30">M10</text>
<text dominant-baseline="middle"  x="790.166028" y="1586.845468" font-size="30">I6</text>
<text dominant-baseline="middle"  x="833.023171" y="1586.845468" font-size="30">Exit</text>
<text dominant-baseline="middle"  x="290.166028" y="1129.702610" font-size="30">CM2</text>
<text dominant-baseline="middle"  x="633.023171" y="1643.988325" font-size="30">Camera1</text>
<text dominant-baseline="middle"  x="704.451742" y="1529.702610" font-size="30">Camera2</text>
<text dominant-baseline="middle"  x="147.308885" y="915.416896" font-size="30">Enter2</text>
<text dominant-baseline="middle"  x="575.880314" y="915.416896" font-size="30">I7</text>
<text dominant-baseline="middle"  x="690.166028" y="915.416896" font-size="30">L4</text>
<text dominant-baseline="middle"  x="718.737457" y="915.416896" font-size="30">M11</text>
<text dominant-baseline="middle"  x="575.880314" y="1058.274039" font-size="30">P3</text>
<polyline points="833,1586 704,1586 704,1643 204,1643 418,1643 418,1558 633,1558 633,486 718,486 718,486 575,486 575,1058 504,1058 504,58 290,1129 461,272 290,1129 504,58 504,1201 504,58 290,1129 461,272 290,1129 504,58 504,1486 147,1486 " style="fill:none;stroke:rgb(0,0,0);stroke-width:5;fill-rule:evenodd;" />
<polyline points="718,843 718,915 147,915 " style="fill:none;stroke:rgb(0,0,0);stroke-width:5;fill-rule:evenodd;" />
<polyline points="633,1643 633,1558 " style="fill:none;stroke:rgb(0,0,0);stroke-width:5;fill-rule:evenodd;" />
<polyline points="704,1529 704,1586 " style="fill:none;stroke:rgb(0,0,0);stroke-width:5;fill-rule:evenodd;" />

</svg>



