
<svg xmlns="http://www.w3.org/2000/svg"  viewBox="0 0 1000 449.99999999999994" style="overflow: hidden;border: 2px solid #888888;"> 
<text dominant-baseline="middle"  x="143.706294" y="97.552447" font-size="15">Enter1</text>
<text dominant-baseline="middle"  x="158.706294" y="97.552447" font-size="15">FR1</text>
<text dominant-baseline="middle"  x="208.706294" y="97.552447" font-size="15">PL1</text>
<text dominant-baseline="middle"  x="283.706294" y="97.552447" font-size="15">L1</text>
<text dominant-baseline="middle"  x="798.706294" y="97.552447" font-size="15">M1</text>
<text dominant-baseline="middle"  x="798.706294" y="122.552447" font-size="15">L2</text>
<text dominant-baseline="middle"  x="798.706294" y="272.552447" font-size="15">M2</text>
<text dominant-baseline="middle"  x="748.706294" y="272.552447" font-size="15">L3</text>
<text dominant-baseline="middle"  x="733.706294" y="272.552447" font-size="15">I3</text>
<text dominant-baseline="middle"  x="728.706294" y="272.552447" font-size="15">X1</text>
<text dominant-baseline="middle"  x="723.706294" y="272.552447" font-size="15">Exit1</text>
<text dominant-baseline="middle"  x="723.706294" y="322.552447" font-size="15">Enter2</text>
<text dominant-baseline="middle"  x="773.706294" y="322.552447" font-size="15">I4</text>
<text dominant-baseline="middle"  x="788.706294" y="322.552447" font-size="15">M4</text>
<text dominant-baseline="middle"  x="788.706294" y="197.552447" font-size="15">M5</text>
<text dominant-baseline="middle"  x="838.706294" y="197.552447" font-size="15">M6</text>
<text dominant-baseline="middle"  x="838.706294" y="247.552447" font-size="15">I5</text>
<text dominant-baseline="middle"  x="838.706294" y="397.552447" font-size="15">L5</text>
<text dominant-baseline="middle"  x="838.706294" y="412.552447" font-size="15">Exit2</text>
<text dominant-baseline="middle"  x="208.706294" y="22.552447" font-size="15">Enter3</text>
<text dominant-baseline="middle"  x="208.706294" y="47.552447" font-size="15">X2</text>
<text dominant-baseline="middle"  x="208.706294" y="72.552447" font-size="15">SP1</text>
<text dominant-baseline="middle"  x="208.706294" y="222.552447" font-size="15">Exit3a</text>
<text dominant-baseline="middle"  x="258.706294" y="72.552447" font-size="15">P1</text>
<text dominant-baseline="middle"  x="258.706294" y="222.552447" font-size="15">Exit3b</text>
<text dominant-baseline="middle"  x="358.706294" y="22.552447" font-size="15">Enter4</text>
<text dominant-baseline="middle"  x="358.706294" y="37.552447" font-size="15">L6</text>
<text dominant-baseline="middle"  x="358.706294" y="52.552447" font-size="15">SP2</text>
<text dominant-baseline="middle"  x="358.706294" y="177.552447" font-size="15">P2</text>
<text dominant-baseline="middle"  x="508.706294" y="177.552447" font-size="15">M7</text>
<text dominant-baseline="middle"  x="508.706294" y="222.552447" font-size="15">Exit4a</text>
<text dominant-baseline="middle"  x="383.706294" y="52.552447" font-size="15">M8</text>
<text dominant-baseline="middle"  x="383.706294" y="77.552447" font-size="15">M9</text>
<text dominant-baseline="middle"  x="308.706294" y="77.552447" font-size="15">P3</text>
<text dominant-baseline="middle"  x="308.706294" y="222.552447" font-size="15">Exit4b</text>
<text dominant-baseline="middle"  x="783.706294" y="97.552447" font-size="15">I1</text>
<text dominant-baseline="middle"  x="798.706294" y="257.552447" font-size="15">I2</text>
<polyline points="723,272 798,272 798,97 143,97 " style="fill:none;stroke:rgb(255,0,0);stroke-width:5;fill-rule:evenodd;" />
<polyline points="838,412 838,197 788,197 788,322 723,322 " style="fill:none;stroke:rgb(255,0,0);stroke-width:5;fill-rule:evenodd;" />
<polyline points="208,222 208,72 208,22 " style="fill:none;stroke:rgb(0,255,0);stroke-width:5;fill-rule:evenodd;" />
<polyline points="258,222 258,72 208,72 " style="fill:none;stroke:rgb(0,255,0);stroke-width:5;fill-rule:evenodd;" />
<polyline points="508,222 508,177 358,177 358,52 358,22 " style="fill:none;stroke:rgb(0,255,0);stroke-width:5;fill-rule:evenodd;" />
<polyline points="308,222 308,77 383,77 383,52 358,52 " style="fill:none;stroke:rgb(0,255,0);stroke-width:5;fill-rule:evenodd;" />
<text dominant-baseline="middle"  x="798.706294" y="257.552447" font-size="15">I2</text>
<text dominant-baseline="middle"  x="783.706294" y="97.552447" font-size="15">I1</text>
<text dominant-baseline="middle"  x="308.706294" y="222.552447" font-size="15">Exit4b</text>
<text dominant-baseline="middle"  x="308.706294" y="77.552447" font-size="15">P3</text>
<text dominant-baseline="middle"  x="383.706294" y="77.552447" font-size="15">M9</text>
<text dominant-baseline="middle"  x="383.706294" y="52.552447" font-size="15">M8</text>
<text dominant-baseline="middle"  x="508.706294" y="222.552447" font-size="15">Exit4a</text>
<text dominant-baseline="middle"  x="508.706294" y="177.552447" font-size="15">M7</text>
<text dominant-baseline="middle"  x="358.706294" y="177.552447" font-size="15">P2</text>
<text dominant-baseline="middle"  x="358.706294" y="52.552447" font-size="15">SP2</text>
<text dominant-baseline="middle"  x="358.706294" y="37.552447" font-size="15">L6</text>
<text dominant-baseline="middle"  x="358.706294" y="22.552447" font-size="15">Enter4</text>
<text dominant-baseline="middle"  x="258.706294" y="222.552447" font-size="15">Exit3b</text>
<text dominant-baseline="middle"  x="258.706294" y="72.552447" font-size="15">P1</text>
<text dominant-baseline="middle"  x="208.706294" y="222.552447" font-size="15">Exit3a</text>
<text dominant-baseline="middle"  x="208.706294" y="72.552447" font-size="15">SP1</text>
<text dominant-baseline="middle"  x="208.706294" y="47.552447" font-size="15">X2</text>
<text dominant-baseline="middle"  x="208.706294" y="22.552447" font-size="15">Enter3</text>
<text dominant-baseline="middle"  x="838.706294" y="412.552447" font-size="15">Exit2</text>
<text dominant-baseline="middle"  x="838.706294" y="397.552447" font-size="15">L5</text>
<text dominant-baseline="middle"  x="838.706294" y="247.552447" font-size="15">I5</text>
<text dominant-baseline="middle"  x="838.706294" y="197.552447" font-size="15">M6</text>
<text dominant-baseline="middle"  x="788.706294" y="197.552447" font-size="15">M5</text>
<text dominant-baseline="middle"  x="788.706294" y="322.552447" font-size="15">M4</text>
<text dominant-baseline="middle"  x="773.706294" y="322.552447" font-size="15">I4</text>
<text dominant-baseline="middle"  x="723.706294" y="322.552447" font-size="15">Enter2</text>
<text dominant-baseline="middle"  x="723.706294" y="272.552447" font-size="15">Exit1</text>
<text dominant-baseline="middle"  x="728.706294" y="272.552447" font-size="15">X1</text>
<text dominant-baseline="middle"  x="733.706294" y="272.552447" font-size="15">I3</text>
<text dominant-baseline="middle"  x="748.706294" y="272.552447" font-size="15">L3</text>
<text dominant-baseline="middle"  x="798.706294" y="272.552447" font-size="15">M2</text>
<text dominant-baseline="middle"  x="798.706294" y="122.552447" font-size="15">L2</text>
<text dominant-baseline="middle"  x="798.706294" y="97.552447" font-size="15">M1</text>
<text dominant-baseline="middle"  x="283.706294" y="97.552447" font-size="15">L1</text>
<text dominant-baseline="middle"  x="208.706294" y="97.552447" font-size="15">PL1</text>
<text dominant-baseline="middle"  x="158.706294" y="97.552447" font-size="15">FR1</text>
<text dominant-baseline="middle"  x="143.706294" y="97.552447" font-size="15">Enter1</text>

</svg>



