
<svg xmlns="http://www.w3.org/2000/svg"  viewBox="0 0 1000 450.0" style="overflow: hidden;border: 2px solid #888888;"> 
<text dominant-baseline="middle"  x="135.314685" y="105.944055" font-size="30">Enter1</text>
<text dominant-baseline="middle"  x="150.314685" y="105.944055" font-size="30">FR1</text>
<text dominant-baseline="middle"  x="200.314685" y="105.944055" font-size="30">PL1</text>
<text dominant-baseline="middle"  x="275.314685" y="105.944055" font-size="30">L1</text>
<text dominant-baseline="middle"  x="790.314685" y="105.944055" font-size="30">M1</text>
<text dominant-baseline="middle"  x="790.314685" y="130.944055" font-size="30">L2</text>
<text dominant-baseline="middle"  x="790.314685" y="280.944055" font-size="30">M2</text>
<text dominant-baseline="middle"  x="740.314685" y="280.944055" font-size="30">L3</text>
<text dominant-baseline="middle"  x="725.314685" y="280.944055" font-size="30">I3</text>
<text dominant-baseline="middle"  x="720.314685" y="280.944055" font-size="30">X1</text>
<text dominant-baseline="middle"  x="715.314685" y="280.944055" font-size="30">Exit1</text>
<text dominant-baseline="middle"  x="715.314685" y="330.944055" font-size="30">Enter2</text>
<text dominant-baseline="middle"  x="765.314685" y="330.944055" font-size="30">I4</text>
<text dominant-baseline="middle"  x="780.314685" y="330.944055" font-size="30">M4</text>
<text dominant-baseline="middle"  x="780.314685" y="205.944055" font-size="30">M5</text>
<text dominant-baseline="middle"  x="830.314685" y="205.944055" font-size="30">M6</text>
<text dominant-baseline="middle"  x="830.314685" y="255.944055" font-size="30">I5</text>
<text dominant-baseline="middle"  x="830.314685" y="405.944055" font-size="30">L5</text>
<text dominant-baseline="middle"  x="830.314685" y="420.944055" font-size="30">Exit2</text>
<text dominant-baseline="middle"  x="200.314685" y="30.944055" font-size="30">Enter3</text>
<text dominant-baseline="middle"  x="200.314685" y="55.944055" font-size="30">X2</text>
<text dominant-baseline="middle"  x="200.314685" y="80.944055" font-size="30">SP1</text>
<text dominant-baseline="middle"  x="200.314685" y="230.944055" font-size="30">Exit3a</text>
<text dominant-baseline="middle"  x="250.314685" y="80.944055" font-size="30">P1</text>
<text dominant-baseline="middle"  x="250.314685" y="230.944055" font-size="30">Exit3b</text>
<text dominant-baseline="middle"  x="350.314685" y="30.944055" font-size="30">Enter4</text>
<text dominant-baseline="middle"  x="350.314685" y="45.944055" font-size="30">L6</text>
<text dominant-baseline="middle"  x="350.314685" y="60.944055" font-size="30">SP2</text>
<text dominant-baseline="middle"  x="350.314685" y="185.944055" font-size="30">P2</text>
<text dominant-baseline="middle"  x="500.314685" y="185.944055" font-size="30">M7</text>
<text dominant-baseline="middle"  x="500.314685" y="230.944055" font-size="30">Exit4a</text>
<text dominant-baseline="middle"  x="375.314685" y="60.944055" font-size="30">M8</text>
<text dominant-baseline="middle"  x="375.314685" y="85.944055" font-size="30">M9</text>
<text dominant-baseline="middle"  x="300.314685" y="85.944055" font-size="30">P3</text>
<text dominant-baseline="middle"  x="300.314685" y="230.944055" font-size="30">Exit4b</text>
<text dominant-baseline="middle"  x="775.314685" y="105.944055" font-size="30">I1</text>
<text dominant-baseline="middle"  x="790.314685" y="265.944055" font-size="30">I2</text>
<polyline points="715,280 790,280 790,105 135,105 " style="fill:none;stroke:rgb(0,0,0);stroke-width:5;fill-rule:evenodd;" />
<polyline points="830,420 830,205 780,205 780,330 715,330 " style="fill:none;stroke:rgb(0,0,0);stroke-width:5;fill-rule:evenodd;" />
<polyline points="200,230 200,80 200,30 " style="fill:none;stroke:rgb(0,0,0);stroke-width:5;fill-rule:evenodd;" />
<polyline points="250,230 250,80 200,80 " style="fill:none;stroke:rgb(0,0,0);stroke-width:5;fill-rule:evenodd;" />
<polyline points="500,230 500,185 350,185 350,60 350,30 " style="fill:none;stroke:rgb(0,0,0);stroke-width:5;fill-rule:evenodd;" />
<polyline points="300,230 300,85 375,85 375,60 350,60 " style="fill:none;stroke:rgb(0,0,0);stroke-width:5;fill-rule:evenodd;" />

</svg>



