
<svg xmlns="http://www.w3.org/2000/svg"  viewBox="0 0 1000 473.6842105263158" style="overflow: hidden;border: 2px solid #888888;"> 
<text dominant-baseline="middle"  x="631.578947" y="105.263158" font-size="30">Enter</text>
<text dominant-baseline="middle"  x="631.578947" y="231.578947" font-size="30">P1</text>
<text dominant-baseline="middle"  x="421.052632" y="231.578947" font-size="30">S1</text>
<text dominant-baseline="middle"  x="368.421053" y="231.578947" font-size="30">M1</text>
<text dominant-baseline="middle"  x="368.421053" y="252.631579" font-size="30">M2</text>
<text dominant-baseline="middle"  x="642.105263" y="263.157895" font-size="30">MK1</text>
<text dominant-baseline="middle"  x="852.631579" y="294.736842" font-size="30">CM1</text>
<text dominant-baseline="middle"  x="326.315789" y="294.736842" font-size="30">CM2</text>
<text dominant-baseline="middle"  x="431.578947" y="326.315789" font-size="30">MK2</text>
<text dominant-baseline="middle"  x="484.210526" y="336.842105" font-size="30">M3</text>
<text dominant-baseline="middle"  x="484.210526" y="315.789474" font-size="30">M4</text>
<text dominant-baseline="middle"  x="568.421053" y="252.631579" font-size="30">M5</text>
<text dominant-baseline="middle"  x="568.421053" y="273.684211" font-size="30">M6</text>
<text dominant-baseline="middle"  x="800.000000" y="284.210526" font-size="30">M7</text>
<text dominant-baseline="middle"  x="805.263158" y="242.105263" font-size="30">SP1</text>
<text dominant-baseline="middle"  x="805.263158" y="231.578947" font-size="30">PockelsCell</text>
<text dominant-baseline="middle"  x="818.947368" y="126.315789" font-size="30">P2</text>
<text dominant-baseline="middle"  x="766.315789" y="121.052632" font-size="30">M8</text>
<text dominant-baseline="middle"  x="763.684211" y="142.105263" font-size="30">PL1</text>
<text dominant-baseline="middle"  x="752.631579" y="247.368421" font-size="30">SP2</text>
<text dominant-baseline="middle"  x="747.368421" y="278.947368" font-size="30">M9</text>
<text dominant-baseline="middle"  x="505.263158" y="242.105263" font-size="30">P3</text>
<text dominant-baseline="middle"  x="463.157895" y="236.842105" font-size="30">L1</text>
<text dominant-baseline="middle"  x="326.315789" y="247.368421" font-size="30">P4</text>
<text dominant-baseline="middle"  x="331.578947" y="289.473684" font-size="30">M10</text>
<text dominant-baseline="middle"  x="331.578947" y="394.736842" font-size="30">Exit</text>
<text dominant-baseline="middle"  x="63.157895" y="294.736842" font-size="30">Enter2</text>
<text dominant-baseline="middle"  x="115.789474" y="294.736842" font-size="30">L2</text>
<text dominant-baseline="middle"  x="168.421053" y="294.736842" font-size="30">L3</text>
<text dominant-baseline="middle"  x="273.684211" y="294.736842" font-size="30">L4</text>
<text dominant-baseline="middle"  x="905.263158" y="294.736842" font-size="30">M11</text>
<text dominant-baseline="middle"  x="536.842105" y="294.736842" font-size="30">Chamber1</text>
<polyline points="63,294 905,294 63,294 " style="fill:none;stroke:rgb(0,200,0);stroke-width:5;fill-rule:evenodd;" />
<polyline points="331,394 331,289 326,294 852,294 326,247 505,242 852,294 326,294 484,315 484,336 326,294 852,294 568,273 568,252 852,294 326,294 484,315 484,336 326,294 852,294 747,278 766,121 818,126 800,284 852,294 326,294 484,315 484,336 326,294 852,294 568,273 568,252 852,294 326,294 484,315 484,336 326,294 852,294 368,252 368,231 421,231 631,231 631,105 " style="fill:none;stroke:rgb(255,0,0);stroke-width:5;fill-rule:evenodd;" />

</svg>



