
<svg xmlns="http://www.w3.org/2000/svg"  viewBox="0 0 1000 321.42857142857144" style="overflow: hidden;border: 2px solid #888888;"> 
<polygon points="428,44 428,98 337,98 337,44 428,44 " style="fill:rgb(0,0,0);stroke:black;stroke-width:5;fill-rule:evenodd;" />
<polygon points="571,75 571,66 575,66 575,75 571,75 " style="fill:rgb(0,0,0);stroke:black;stroke-width:5;fill-rule:evenodd;" />
<polygon points="571,147 571,138 575,138 575,147 571,147 " style="fill:rgb(0,0,0);stroke:black;stroke-width:5;fill-rule:evenodd;" />
<polygon points="428,75 428,66 432,66 432,75 428,75 " style="fill:rgb(0,0,0);stroke:black;stroke-width:5;fill-rule:evenodd;" />
<polygon points="285,147 285,138 289,138 289,147 285,147 " style="fill:rgb(0,0,0);stroke:black;stroke-width:5;fill-rule:evenodd;" />
<polygon points="285,183 285,174 289,174 289,183 285,183 " style="fill:rgb(0,0,0);stroke:black;stroke-width:5;fill-rule:evenodd;" />
<polygon points="214,183 214,174 217,174 217,183 214,183 " style="fill:rgb(0,0,0);stroke:black;stroke-width:5;fill-rule:evenodd;" />
<polygon points="128,183 128,174 132,174 132,183 128,183 " style="fill:rgb(0,0,0);stroke:black;stroke-width:5;fill-rule:evenodd;" />
<polygon points="78,183 78,174 82,174 82,183 78,183 " style="fill:rgb(0,0,0);stroke:black;stroke-width:5;fill-rule:evenodd;" />
<text dominant-baseline="middle"  x="371.428571" y="235.714286" font-size="30">M6</text>
<text dominant-baseline="middle"  x="78.571429" y="235.714286" font-size="30">M7</text>
<text dominant-baseline="middle"  x="64.285714" y="221.428571" font-size="30">M8</text>
<text dominant-baseline="middle"  x="392.857143" y="192.857143" font-size="30">M9</text>
<text dominant-baseline="middle"  x="92.857143" y="192.857143" font-size="30">M10</text>
<text dominant-baseline="middle"  x="414.285714" y="200.000000" font-size="30">OC1</text>
<text dominant-baseline="middle"  x="450.000000" y="200.000000" font-size="30">SP1</text>
<text dominant-baseline="middle"  x="450.000000" y="185.714286" font-size="30">DF1</text>
<text dominant-baseline="middle"  x="450.000000" y="78.571429" font-size="30">DT1</text>
<text dominant-baseline="middle"  x="435.714286" y="200.000000" font-size="30">PL1</text>
<text dominant-baseline="middle"  x="592.857143" y="200.000000" font-size="30">M11</text>
<text dominant-baseline="middle"  x="592.857143" y="100.000000" font-size="30">M12</text>
<text dominant-baseline="middle"  x="607.142857" y="100.000000" font-size="30">P2</text>
<text dominant-baseline="middle"  x="664.285714" y="100.000000" font-size="30">F1</text>
<text dominant-baseline="middle"  x="842.857143" y="100.000000" font-size="30">X1</text>
<text dominant-baseline="middle"  x="892.857143" y="100.000000" font-size="30">X2</text>
<text dominant-baseline="middle"  x="942.857143" y="100.000000" font-size="30">X3</text>
<text dominant-baseline="middle"  x="964.285714" y="100.000000" font-size="30">P3</text>
<text dominant-baseline="middle"  x="771.428571" y="100.000000" font-size="30">M13</text>
<text dominant-baseline="middle"  x="771.428571" y="64.285714" font-size="30">M14</text>
<text dominant-baseline="middle"  x="657.142857" y="64.285714" font-size="30">M15</text>
<text dominant-baseline="middle"  x="107.142857" y="178.571429" font-size="30">TS1</text>
<polyline points="78,178 128,178 285,178 285,142 571,142 571,71 428,71 " style="fill:none;stroke:rgb(0,0,0);stroke-width:5;fill-rule:evenodd;" />
<polyline points="657,64 771,64 771,100 964,100 607,100 592,100 592,200 450,200 435,200 414,200 " style="fill:none;stroke:rgb(0,0,0);stroke-width:5;fill-rule:evenodd;" />
<polyline points="450,78 450,185 450,200 " style="fill:none;stroke:rgb(0,0,0);stroke-width:5;fill-rule:evenodd;" />
<polyline points="414,200 64,221 392,192 92,192 128,178 78,178 371,235 78,235 371,235 78,178 128,178 " style="fill:none;stroke:rgb(0,0,0);stroke-width:5;fill-rule:evenodd;" />

</svg>



