
<svg xmlns="http://www.w3.org/2000/svg"  viewBox="0 0 1000 788.709677419355" style="overflow: hidden;border: 2px solid #888888;"> 
<polygon points="662,23 662,70 733,70 733,215 927,215 927,656 583,656 583,765 87,765 87,653 72,653 72,23 48,23 48,676 64,676 64,788 606,788 606,679 951,679 951,192 756,192 756,46 685,46 685,0 48,0 48,23 662,23 " style="fill:rgb(0,0,0);stroke:black;stroke-width:5;fill-rule:evenodd;" />
<polygon points="641,390 547,390 547,153 641,153 641,390 " style="fill:rgb(255,255,255);stroke:black;stroke-width:5;fill-rule:evenodd;" />
<polygon points="547,484 547,390 783,390 783,484 547,484 " style="fill:rgb(255,255,255);stroke:black;stroke-width:5;fill-rule:evenodd;" />
<polygon points="451,390 356,390 356,153 451,153 451,390 " style="fill:rgb(255,255,255);stroke:black;stroke-width:5;fill-rule:evenodd;" />
<polygon points="474,697 380,697 380,508 474,508 474,697 " style="fill:rgb(255,255,255);stroke:black;stroke-width:5;fill-rule:evenodd;" />
<polygon points="263,508 263,390 547,390 547,508 263,508 " style="fill:rgb(255,255,255);stroke:black;stroke-width:5;fill-rule:evenodd;" />
<polygon points="263,413 145,413 145,201 263,201 263,413 " style="fill:rgb(255,255,255);stroke:black;stroke-width:5;fill-rule:evenodd;" />
<polygon points="263,697 145,697 145,413 263,413 263,697 " style="fill:rgb(255,255,255);stroke:black;stroke-width:5;fill-rule:evenodd;" />
<polygon points="641,555 547,555 547,484 641,484 641,555 " style="fill:rgb(255,255,255);stroke:black;stroke-width:5;fill-rule:evenodd;" />





<svg xmlns="http://www.w3.org/2000/svg"  viewBox="0 0 1000 788.709677419355" style="overflow: hidden;border: 2px solid #888888;"> 
<polygon points="157,595 157,557 207,557 207,595 157,595 " style="fill:rgb(200,200,200);stroke:black;stroke-width:5;fill-rule:evenodd;" />
<polygon points="219,697 145,697 145,595 219,595 219,697 " style="fill:rgb(200,200,200);stroke:black;stroke-width:5;fill-rule:evenodd;" />
<polygon points="263,697 232,697 232,576 263,576 263,697 " style="fill:rgb(200,200,200);stroke:black;stroke-width:5;fill-rule:evenodd;" />
<polygon points="145,551 145,492 263,492 263,551 145,551 " style="fill:rgb(200,200,200);stroke:black;stroke-width:5;fill-rule:evenodd;" />
<polygon points="145,477 145,456 228,456 228,477 145,477 " style="fill:rgb(200,200,200);stroke:black;stroke-width:5;fill-rule:evenodd;" />
<polygon points="145,448 145,428 228,428 228,448 145,448 " style="fill:rgb(200,200,200);stroke:black;stroke-width:5;fill-rule:evenodd;" />
<polygon points="290,506 290,486 373,486 373,506 290,506 " style="fill:rgb(200,200,200);stroke:black;stroke-width:5;fill-rule:evenodd;" />
<polygon points="273,421 273,390 328,390 328,421 273,421 " style="fill:rgb(200,200,200);stroke:black;stroke-width:5;fill-rule:evenodd;" />
<polygon points="273,490 228,490 228,390 273,390 273,490 " style="fill:rgb(200,200,200);stroke:black;stroke-width:5;fill-rule:evenodd;" />
<polygon points="273,478 273,421 389,421 389,478 273,478 " style="fill:rgb(200,200,200);stroke:black;stroke-width:5;fill-rule:evenodd;" />
<polygon points="328,402 328,390 453,390 453,402 328,402 " style="fill:rgb(200,200,200);stroke:black;stroke-width:5;fill-rule:evenodd;" />
<polygon points="464,531 464,401 551,401 551,531 464,531 " style="fill:rgb(200,200,200);stroke:black;stroke-width:5;fill-rule:evenodd;" />
<polygon points="582,472 582,401 612,401 612,472 582,472 " style="fill:rgb(200,200,200);stroke:black;stroke-width:5;fill-rule:evenodd;" />
<polygon points="742,437 742,434 741,431 741,428 740,425 739,422 738,419 737,417 736,414 734,411 732,409 731,407 729,404 726,402 724,400 722,398 719,397 717,395 714,394 711,393 708,392 706,391 703,390 700,390 697,390 694,390 691,390 688,390 685,391 682,391 679,392 676,393 673,395 671,396 668,398 666,399 663,401 661,403 659,405 657,408 655,410 654,413 652,415 651,418 650,421 649,424 648,427 648,429 647,432 647,435 647,438 647,441 648,444 648,447 649,450 650,453 651,456 652,459 654,461 655,464 657,466 659,468 661,471 663,473 666,475 668,476 671,478 673,479 676,480 679,482 682,482 685,483 688,484 691,484 694,484 697,484 700,484 703,483 706,483 708,482 711,481 714,480 717,479 719,477 722,475 724,474 726,472 729,470 731,467 732,465 734,462 736,460 737,457 738,454 739,452 740,449 741,446 741,443 742,440 742,437 " style="fill:rgb(200,200,200);stroke:black;stroke-width:5;fill-rule:evenodd;" />
<polygon points="699,561 689,561 689,364 699,364 699,561 " style="fill:rgb(0,0,0);stroke:black;stroke-width:5;fill-rule:evenodd;" />
<polygon points="723,551 723,487 786,487 786,551 723,551 " style="fill:rgb(0,0,0);stroke:black;stroke-width:5;fill-rule:evenodd;" />

</svg>





</svg>



