
<svg xmlns="http://www.w3.org/2000/svg"  viewBox="0 0 1000 816.4340175953079" style="overflow: hidden;border: 2px solid #888888;"> 
<polygon points="524,769 491,751 432,761 463,779 524,769 524,458 491,456 432,457 463,459 524,458 " style="fill:white;stroke:black;stroke-width:5;fill-rule:evenodd;" />
<polygon points="637,749 601,734 548,742 582,759 637,749 637,455 601,453 548,455 582,456 637,455 " style="fill:white;stroke:black;stroke-width:5;fill-rule:evenodd;" />
<polygon points="669,434 590,432 406,434 471,436 669,434 669,167 589,192 406,171 471,142 669,167 " style="fill:white;stroke:black;stroke-width:5;fill-rule:evenodd;" />
<polygon points="613,131 555,153 462,141 516,117 613,131 613,19 554,50 462,33 516,0 613,19 " style="fill:white;stroke:black;stroke-width:5;fill-rule:evenodd;" />
<polygon points="642,781 583,754 522,764 578,793 642,781 642,748 583,723 522,733 578,759 642,748 " style="fill:white;stroke:black;stroke-width:5;fill-rule:evenodd;" />
<polygon points="529,802 476,772 408,783 457,816 529,802 529,768 476,740 408,750 457,780 529,768 " style="fill:white;stroke:black;stroke-width:5;fill-rule:evenodd;" />
<polygon points="672,178 635,189 683,194 722,184 672,178 672,465 635,463 684,462 722,464 672,465 " style="fill:white;stroke:black;stroke-width:5;fill-rule:evenodd;" />
<polygon points="418,165 350,158 327,134 393,142 418,165 357,443 295,444 277,411 337,411 357,443 " style="fill:white;stroke:black;stroke-width:5;fill-rule:evenodd;" />

</svg>



