
<svg xmlns="http://www.w3.org/2000/svg"  viewBox="0 0 1000 477.27272727272725" style="overflow: hidden;border: 2px solid #888888;"> 
<text dominant-baseline="middle"  x="172.206996" y="45.126151" font-size="15">Enter1</text>
<text dominant-baseline="middle"  x="172.206996" y="163.307969" font-size="15">M1</text>
<text dominant-baseline="middle"  x="478.854269" y="144.257969" font-size="15">TS1</text>
<text dominant-baseline="middle"  x="788.734269" y="121.744333" font-size="15">MA1</text>
<text dominant-baseline="middle"  x="788.734269" y="163.885242" font-size="15">MA2</text>
<text dominant-baseline="middle"  x="144.613360" y="121.975242" font-size="15">MB1</text>
<text dominant-baseline="middle"  x="144.613360" y="158.343424" font-size="15">MB2</text>
<text dominant-baseline="middle"  x="815.981541" y="128.787060" font-size="15">MA3</text>
<text dominant-baseline="middle"  x="815.981541" y="157.188878" font-size="15">MA4</text>
<text dominant-baseline="middle"  x="117.250632" y="129.248878" font-size="15">MB3</text>
<text dominant-baseline="middle"  x="117.250632" y="152.339787" font-size="15">MB4</text>
<text dominant-baseline="middle"  x="840.919723" y="134.213424" font-size="15">M2</text>
<text dominant-baseline="middle"  x="840.919723" y="210.528878" font-size="15">M3</text>
<text dominant-baseline="middle"  x="674.203360" y="203.832515" font-size="15">I1</text>
<text dominant-baseline="middle"  x="511.181541" y="210.528878" font-size="15">M4</text>
<text dominant-baseline="middle"  x="511.181541" y="376.898878" font-size="15">M5</text>
<text dominant-baseline="middle"  x="340.909091" y="376.898878" font-size="15">M6</text>
<text dominant-baseline="middle"  x="340.909091" y="409.341606" font-size="15">M7</text>
<text dominant-baseline="middle"  x="363.636364" y="372.727273" font-size="15">I2</text>
<text dominant-baseline="middle"  x="549.050632" y="408.995242" font-size="15">I3</text>
<text dominant-baseline="middle"  x="559.090909" y="372.727273" font-size="15">L1</text>
<text dominant-baseline="middle"  x="746.246996" y="409.918878" font-size="15">L2</text>
<text dominant-baseline="middle"  x="808.938814" y="409.341606" font-size="15">M8</text>
<text dominant-baseline="middle"  x="808.938814" y="318.247969" font-size="15">M9</text>
<text dominant-baseline="middle"  x="497.096087" y="336.143424" font-size="15">TS2</text>
<text dominant-baseline="middle"  x="836.763360" y="353.346151" font-size="15">MD1</text>
<text dominant-baseline="middle"  x="836.763360" y="331.525242" font-size="15">MD2</text>
<text dominant-baseline="middle"  x="192.526996" y="360.157969" font-size="15">MC1</text>
<text dominant-baseline="middle"  x="192.526996" y="324.944333" font-size="15">MC2</text>
<text dominant-baseline="middle"  x="163.894269" y="344.687060" font-size="15">M10</text>
<text dominant-baseline="middle"  x="163.894269" y="279.455242" font-size="15">M11</text>
<text dominant-baseline="middle"  x="841.496996" y="267.447969" font-size="15">M12</text>
<text dominant-baseline="middle"  x="363.636364" y="245.454545" font-size="15">M13</text>
<text dominant-baseline="middle"  x="363.636364" y="45.126151" font-size="15">Exit</text>
<text dominant-baseline="middle"  x="72.685178" y="68.057969" font-size="15">Enter2</text>
<text dominant-baseline="middle"  x="84.461541" y="68.057969" font-size="15">SP1</text>
<text dominant-baseline="middle"  x="204.545455" y="103.040696" font-size="15">L3</text>
<text dominant-baseline="middle"  x="84.461541" y="144.257969" font-size="15">M14</text>
<text dominant-baseline="middle"  x="386.363636" y="68.057969" font-size="15">Tube1</text>
<text dominant-baseline="middle"  x="869.783360" y="68.057969" font-size="15">M15</text>
<text dominant-baseline="middle"  x="872.438814" y="107.427969" font-size="15">L4</text>
<text dominant-baseline="middle"  x="869.783360" y="149.453424" font-size="15">M16</text>
<text dominant-baseline="middle"  x="72.685178" y="244.010696" font-size="15">Enter3</text>
<text dominant-baseline="middle"  x="122.907905" y="244.010696" font-size="15">M17</text>
<text dominant-baseline="middle"  x="122.907905" y="328.061606" font-size="15">M18</text>
<text dominant-baseline="middle"  x="72.685178" y="411.535242" font-size="15">Enter4</text>
<text dominant-baseline="middle"  x="222.727273" y="368.181818" font-size="15">L5</text>
<text dominant-baseline="middle"  x="119.097905" y="411.535242" font-size="15">M19</text>
<text dominant-baseline="middle"  x="119.097905" y="345.841606" font-size="15">M20</text>
<text dominant-baseline="middle"  x="72.685178" y="103.040696" font-size="15">Enter5</text>
<text dominant-baseline="middle"  x="213.636364" y="103.040696" font-size="15">Tube2</text>
<text dominant-baseline="middle"  x="907.767905" y="103.040696" font-size="15">M21</text>
<text dominant-baseline="middle"  x="915.387905" y="224.267969" font-size="15">L6</text>
<text dominant-baseline="middle"  x="907.767905" y="336.143424" font-size="15">M22</text>
<text dominant-baseline="middle"  x="872.438814" y="409.090909" font-size="15">Enter6</text>
<text dominant-baseline="middle"  x="872.438814" y="350.806151" font-size="15">M23</text>
<polyline points="363,45 363,245 841,267 163,279 163,344 836,331 836,353 192,324 192,360 808,318 808,409 340,409 340,376 511,376 511,210 840,210 840,134 117,152 117,129 815,157 815,128 144,158 144,121 788,163 788,121 172,163 172,45 " style="fill:none;stroke:rgb(255,0,0);stroke-width:5;fill-rule:evenodd;" />
<polyline points="478,144 84,144 84,68 72,68 " style="fill:none;stroke:rgb(0,255,0);stroke-width:5;fill-rule:evenodd;" />
<polyline points="478,144 869,149 869,68 386,68 84,68 " style="fill:none;stroke:rgb(0,255,0);stroke-width:5;fill-rule:evenodd;" />
<polyline points="497,336 122,328 122,244 72,244 " style="fill:none;stroke:rgb(0,255,0);stroke-width:5;fill-rule:evenodd;" />
<polyline points="497,336 119,345 119,411 72,411 " style="fill:none;stroke:rgb(0,255,0);stroke-width:5;fill-rule:evenodd;" />
<polyline points="497,336 907,336 907,103 72,103 " style="fill:none;stroke:rgb(0,255,0);stroke-width:5;fill-rule:evenodd;" />
<polyline points="497,336 872,350 872,409 " style="fill:none;stroke:rgb(0,255,0);stroke-width:5;fill-rule:evenodd;" />
<text dominant-baseline="middle"  x="872.438814" y="350.806151" font-size="15">M23</text>
<text dominant-baseline="middle"  x="872.438814" y="409.090909" font-size="15">Enter6</text>
<text dominant-baseline="middle"  x="907.767905" y="336.143424" font-size="15">M22</text>
<text dominant-baseline="middle"  x="915.387905" y="224.267969" font-size="15">L6</text>
<text dominant-baseline="middle"  x="907.767905" y="103.040696" font-size="15">M21</text>
<text dominant-baseline="middle"  x="213.636364" y="103.040696" font-size="15">Tube2</text>
<text dominant-baseline="middle"  x="72.685178" y="103.040696" font-size="15">Enter5</text>
<text dominant-baseline="middle"  x="119.097905" y="345.841606" font-size="15">M20</text>
<text dominant-baseline="middle"  x="119.097905" y="411.535242" font-size="15">M19</text>
<text dominant-baseline="middle"  x="222.727273" y="368.181818" font-size="15">L5</text>
<text dominant-baseline="middle"  x="72.685178" y="411.535242" font-size="15">Enter4</text>
<text dominant-baseline="middle"  x="122.907905" y="328.061606" font-size="15">M18</text>
<text dominant-baseline="middle"  x="122.907905" y="244.010696" font-size="15">M17</text>
<text dominant-baseline="middle"  x="72.685178" y="244.010696" font-size="15">Enter3</text>
<text dominant-baseline="middle"  x="869.783360" y="149.453424" font-size="15">M16</text>
<text dominant-baseline="middle"  x="872.438814" y="107.427969" font-size="15">L4</text>
<text dominant-baseline="middle"  x="869.783360" y="68.057969" font-size="15">M15</text>
<text dominant-baseline="middle"  x="386.363636" y="68.057969" font-size="15">Tube1</text>
<text dominant-baseline="middle"  x="84.461541" y="144.257969" font-size="15">M14</text>
<text dominant-baseline="middle"  x="204.545455" y="103.040696" font-size="15">L3</text>
<text dominant-baseline="middle"  x="84.461541" y="68.057969" font-size="15">SP1</text>
<text dominant-baseline="middle"  x="72.685178" y="68.057969" font-size="15">Enter2</text>
<text dominant-baseline="middle"  x="363.636364" y="45.126151" font-size="15">Exit</text>
<text dominant-baseline="middle"  x="363.636364" y="245.454545" font-size="15">M13</text>
<text dominant-baseline="middle"  x="841.496996" y="267.447969" font-size="15">M12</text>
<text dominant-baseline="middle"  x="163.894269" y="279.455242" font-size="15">M11</text>
<text dominant-baseline="middle"  x="163.894269" y="344.687060" font-size="15">M10</text>
<text dominant-baseline="middle"  x="192.526996" y="324.944333" font-size="15">MC2</text>
<text dominant-baseline="middle"  x="192.526996" y="360.157969" font-size="15">MC1</text>
<text dominant-baseline="middle"  x="836.763360" y="331.525242" font-size="15">MD2</text>
<text dominant-baseline="middle"  x="836.763360" y="353.346151" font-size="15">MD1</text>
<text dominant-baseline="middle"  x="497.096087" y="336.143424" font-size="15">TS2</text>
<text dominant-baseline="middle"  x="808.938814" y="318.247969" font-size="15">M9</text>
<text dominant-baseline="middle"  x="808.938814" y="409.341606" font-size="15">M8</text>
<text dominant-baseline="middle"  x="746.246996" y="409.918878" font-size="15">L2</text>
<text dominant-baseline="middle"  x="559.090909" y="372.727273" font-size="15">L1</text>
<text dominant-baseline="middle"  x="549.050632" y="408.995242" font-size="15">I3</text>
<text dominant-baseline="middle"  x="363.636364" y="372.727273" font-size="15">I2</text>
<text dominant-baseline="middle"  x="340.909091" y="409.341606" font-size="15">M7</text>
<text dominant-baseline="middle"  x="340.909091" y="376.898878" font-size="15">M6</text>
<text dominant-baseline="middle"  x="511.181541" y="376.898878" font-size="15">M5</text>
<text dominant-baseline="middle"  x="511.181541" y="210.528878" font-size="15">M4</text>
<text dominant-baseline="middle"  x="674.203360" y="203.832515" font-size="15">I1</text>
<text dominant-baseline="middle"  x="840.919723" y="210.528878" font-size="15">M3</text>
<text dominant-baseline="middle"  x="840.919723" y="134.213424" font-size="15">M2</text>
<text dominant-baseline="middle"  x="117.250632" y="152.339787" font-size="15">MB4</text>
<text dominant-baseline="middle"  x="117.250632" y="129.248878" font-size="15">MB3</text>
<text dominant-baseline="middle"  x="815.981541" y="157.188878" font-size="15">MA4</text>
<text dominant-baseline="middle"  x="815.981541" y="128.787060" font-size="15">MA3</text>
<text dominant-baseline="middle"  x="144.613360" y="158.343424" font-size="15">MB2</text>
<text dominant-baseline="middle"  x="144.613360" y="121.975242" font-size="15">MB1</text>
<text dominant-baseline="middle"  x="788.734269" y="163.885242" font-size="15">MA2</text>
<text dominant-baseline="middle"  x="788.734269" y="121.744333" font-size="15">MA1</text>
<text dominant-baseline="middle"  x="478.854269" y="144.257969" font-size="15">TS1</text>
<text dominant-baseline="middle"  x="172.206996" y="163.307969" font-size="15">M1</text>
<text dominant-baseline="middle"  x="172.206996" y="45.126151" font-size="15">Enter1</text>

</svg>



