
<svg xmlns="http://www.w3.org/2000/svg"  viewBox="0 0 1000 531.25" style="overflow: hidden;border: 2px solid #888888;"> 
<text dominant-baseline="middle"  x="111.355869" y="30.798458" font-size="15">Enter1</text>
<text dominant-baseline="middle"  x="111.355869" y="189.647208" font-size="15">M1</text>
<text dominant-baseline="middle"  x="470.924619" y="167.104708" font-size="15">TS1</text>
<text dominant-baseline="middle"  x="818.587119" y="141.863458" font-size="15">MA1</text>
<text dominant-baseline="middle"  x="818.587119" y="189.488458" font-size="15">MA2</text>
<text dominant-baseline="middle"  x="80.717119" y="140.752208" font-size="15">MB1</text>
<text dominant-baseline="middle"  x="80.717119" y="182.662208" font-size="15">MB2</text>
<text dominant-baseline="middle"  x="849.225869" y="150.118458" font-size="15">MA3</text>
<text dominant-baseline="middle"  x="849.225869" y="182.185958" font-size="15">MA4</text>
<text dominant-baseline="middle"  x="47.062119" y="149.800958" font-size="15">MB3</text>
<text dominant-baseline="middle"  x="47.062119" y="175.994708" font-size="15">MB4</text>
<text dominant-baseline="middle"  x="878.277119" y="156.468458" font-size="15">M2</text>
<text dominant-baseline="middle"  x="878.277119" y="241.558458" font-size="15">M3</text>
<text dominant-baseline="middle"  x="689.364619" y="233.303458" font-size="15">I1</text>
<text dominant-baseline="middle"  x="506.960869" y="241.558458" font-size="15">M4</text>
<text dominant-baseline="middle"  x="506.960869" y="435.868458" font-size="15">M5</text>
<text dominant-baseline="middle"  x="281.250000" y="435.868458" font-size="15">M6</text>
<text dominant-baseline="middle"  x="281.250000" y="473.968458" font-size="15">M7</text>
<text dominant-baseline="middle"  x="312.500000" y="481.250000" font-size="15">I2</text>
<text dominant-baseline="middle"  x="534.583369" y="472.857208" font-size="15">I3</text>
<text dominant-baseline="middle"  x="581.250000" y="481.250000" font-size="15">L1</text>
<text dominant-baseline="middle"  x="766.358369" y="474.762208" font-size="15">L2</text>
<text dominant-baseline="middle"  x="839.065869" y="473.968458" font-size="15">M8</text>
<text dominant-baseline="middle"  x="839.065869" y="367.129708" font-size="15">M9</text>
<text dominant-baseline="middle"  x="473.623369" y="387.925958" font-size="15">TS2</text>
<text dominant-baseline="middle"  x="871.768369" y="408.404708" font-size="15">MD1</text>
<text dominant-baseline="middle"  x="871.768369" y="382.687208" font-size="15">MD2</text>
<text dominant-baseline="middle"  x="115.959619" y="416.659708" font-size="15">MC1</text>
<text dominant-baseline="middle"  x="115.959619" y="374.908458" font-size="15">MC2</text>
<text dominant-baseline="middle"  x="81.510869" y="396.974708" font-size="15">M10</text>
<text dominant-baseline="middle"  x="81.510869" y="321.092208" font-size="15">M11</text>
<text dominant-baseline="middle"  x="877.007119" y="307.280958" font-size="15">M12</text>
<text dominant-baseline="middle"  x="312.500000" y="306.250000" font-size="15">M13</text>
<text dominant-baseline="middle"  x="312.500000" y="30.798458" font-size="15">Exit</text>
<text dominant-baseline="middle"  x="14.042119" y="81.379708" font-size="15">Enter2</text>
<text dominant-baseline="middle"  x="29.917119" y="81.379708" font-size="15">SP1</text>
<text dominant-baseline="middle"  x="93.750000" y="121.860958" font-size="15">L3</text>
<text dominant-baseline="middle"  x="29.917119" y="165.517208" font-size="15">M14</text>
<text dominant-baseline="middle"  x="343.750000" y="81.379708" font-size="15">Tube1</text>
<text dominant-baseline="middle"  x="909.868369" y="81.379708" font-size="15">M15</text>
<text dominant-baseline="middle"  x="912.884619" y="125.353458" font-size="15">L4</text>
<text dominant-baseline="middle"  x="909.868369" y="173.137208" font-size="15">M16</text>
<text dominant-baseline="middle"  x="14.042119" y="290.453458" font-size="15">Enter3</text>
<text dominant-baseline="middle"  x="66.112119" y="290.453458" font-size="15">M17</text>
<text dominant-baseline="middle"  x="66.112119" y="379.670958" font-size="15">M18</text>
<text dominant-baseline="middle"  x="14.042119" y="470.793458" font-size="15">Enter4</text>
<text dominant-baseline="middle"  x="118.750000" y="475.000000" font-size="15">L5</text>
<text dominant-baseline="middle"  x="63.413369" y="470.793458" font-size="15">M19</text>
<text dominant-baseline="middle"  x="63.413369" y="399.038458" font-size="15">M20</text>
<text dominant-baseline="middle"  x="14.042119" y="121.860958" font-size="15">Enter5</text>
<text dominant-baseline="middle"  x="106.250000" y="121.860958" font-size="15">Tube2</text>
<text dominant-baseline="middle"  x="952.254619" y="121.860958" font-size="15">M21</text>
<text dominant-baseline="middle"  x="956.064619" y="257.274708" font-size="15">L6</text>
<text dominant-baseline="middle"  x="952.254619" y="387.925958" font-size="15">M22</text>
<text dominant-baseline="middle"  x="913.519619" y="481.250000" font-size="15">Enter6</text>
<text dominant-baseline="middle"  x="913.519619" y="404.912208" font-size="15">M23</text>
<polyline points="312,30 312,306 877,307 81,321 81,396 871,382 871,408 115,374 115,416 839,367 839,473 281,473 281,435 506,435 506,241 878,241 878,156 47,175 47,149 849,182 849,150 80,182 80,140 818,189 818,141 111,189 111,30 " style="fill:none;stroke:rgb(255,0,0);stroke-width:5;fill-rule:evenodd;" />
<polyline points="470,167 29,165 29,81 14,81 " style="fill:none;stroke:rgb(0,255,0);stroke-width:5;fill-rule:evenodd;" />
<polyline points="470,167 909,173 909,81 343,81 29,81 " style="fill:none;stroke:rgb(0,255,0);stroke-width:5;fill-rule:evenodd;" />
<polyline points="473,387 66,379 66,290 14,290 " style="fill:none;stroke:rgb(0,255,0);stroke-width:5;fill-rule:evenodd;" />
<polyline points="473,387 63,399 63,470 14,470 " style="fill:none;stroke:rgb(0,255,0);stroke-width:5;fill-rule:evenodd;" />
<polyline points="473,387 952,387 952,121 14,121 " style="fill:none;stroke:rgb(0,255,0);stroke-width:5;fill-rule:evenodd;" />
<polyline points="473,387 913,404 913,481 " style="fill:none;stroke:rgb(0,255,0);stroke-width:5;fill-rule:evenodd;" />
<text dominant-baseline="middle"  x="913.519619" y="404.912208" font-size="15">M23</text>
<text dominant-baseline="middle"  x="913.519619" y="481.250000" font-size="15">Enter6</text>
<text dominant-baseline="middle"  x="952.254619" y="387.925958" font-size="15">M22</text>
<text dominant-baseline="middle"  x="956.064619" y="257.274708" font-size="15">L6</text>
<text dominant-baseline="middle"  x="952.254619" y="121.860958" font-size="15">M21</text>
<text dominant-baseline="middle"  x="106.250000" y="121.860958" font-size="15">Tube2</text>
<text dominant-baseline="middle"  x="14.042119" y="121.860958" font-size="15">Enter5</text>
<text dominant-baseline="middle"  x="63.413369" y="399.038458" font-size="15">M20</text>
<text dominant-baseline="middle"  x="63.413369" y="470.793458" font-size="15">M19</text>
<text dominant-baseline="middle"  x="118.750000" y="475.000000" font-size="15">L5</text>
<text dominant-baseline="middle"  x="14.042119" y="470.793458" font-size="15">Enter4</text>
<text dominant-baseline="middle"  x="66.112119" y="379.670958" font-size="15">M18</text>
<text dominant-baseline="middle"  x="66.112119" y="290.453458" font-size="15">M17</text>
<text dominant-baseline="middle"  x="14.042119" y="290.453458" font-size="15">Enter3</text>
<text dominant-baseline="middle"  x="909.868369" y="173.137208" font-size="15">M16</text>
<text dominant-baseline="middle"  x="912.884619" y="125.353458" font-size="15">L4</text>
<text dominant-baseline="middle"  x="909.868369" y="81.379708" font-size="15">M15</text>
<text dominant-baseline="middle"  x="343.750000" y="81.379708" font-size="15">Tube1</text>
<text dominant-baseline="middle"  x="29.917119" y="165.517208" font-size="15">M14</text>
<text dominant-baseline="middle"  x="93.750000" y="121.860958" font-size="15">L3</text>
<text dominant-baseline="middle"  x="29.917119" y="81.379708" font-size="15">SP1</text>
<text dominant-baseline="middle"  x="14.042119" y="81.379708" font-size="15">Enter2</text>
<text dominant-baseline="middle"  x="312.500000" y="30.798458" font-size="15">Exit</text>
<text dominant-baseline="middle"  x="312.500000" y="306.250000" font-size="15">M13</text>
<text dominant-baseline="middle"  x="877.007119" y="307.280958" font-size="15">M12</text>
<text dominant-baseline="middle"  x="81.510869" y="321.092208" font-size="15">M11</text>
<text dominant-baseline="middle"  x="81.510869" y="396.974708" font-size="15">M10</text>
<text dominant-baseline="middle"  x="115.959619" y="374.908458" font-size="15">MC2</text>
<text dominant-baseline="middle"  x="115.959619" y="416.659708" font-size="15">MC1</text>
<text dominant-baseline="middle"  x="871.768369" y="382.687208" font-size="15">MD2</text>
<text dominant-baseline="middle"  x="871.768369" y="408.404708" font-size="15">MD1</text>
<text dominant-baseline="middle"  x="473.623369" y="387.925958" font-size="15">TS2</text>
<text dominant-baseline="middle"  x="839.065869" y="367.129708" font-size="15">M9</text>
<text dominant-baseline="middle"  x="839.065869" y="473.968458" font-size="15">M8</text>
<text dominant-baseline="middle"  x="766.358369" y="474.762208" font-size="15">L2</text>
<text dominant-baseline="middle"  x="581.250000" y="481.250000" font-size="15">L1</text>
<text dominant-baseline="middle"  x="534.583369" y="472.857208" font-size="15">I3</text>
<text dominant-baseline="middle"  x="312.500000" y="481.250000" font-size="15">I2</text>
<text dominant-baseline="middle"  x="281.250000" y="473.968458" font-size="15">M7</text>
<text dominant-baseline="middle"  x="281.250000" y="435.868458" font-size="15">M6</text>
<text dominant-baseline="middle"  x="506.960869" y="435.868458" font-size="15">M5</text>
<text dominant-baseline="middle"  x="506.960869" y="241.558458" font-size="15">M4</text>
<text dominant-baseline="middle"  x="689.364619" y="233.303458" font-size="15">I1</text>
<text dominant-baseline="middle"  x="878.277119" y="241.558458" font-size="15">M3</text>
<text dominant-baseline="middle"  x="878.277119" y="156.468458" font-size="15">M2</text>
<text dominant-baseline="middle"  x="47.062119" y="175.994708" font-size="15">MB4</text>
<text dominant-baseline="middle"  x="47.062119" y="149.800958" font-size="15">MB3</text>
<text dominant-baseline="middle"  x="849.225869" y="182.185958" font-size="15">MA4</text>
<text dominant-baseline="middle"  x="849.225869" y="150.118458" font-size="15">MA3</text>
<text dominant-baseline="middle"  x="80.717119" y="182.662208" font-size="15">MB2</text>
<text dominant-baseline="middle"  x="80.717119" y="140.752208" font-size="15">MB1</text>
<text dominant-baseline="middle"  x="818.587119" y="189.488458" font-size="15">MA2</text>
<text dominant-baseline="middle"  x="818.587119" y="141.863458" font-size="15">MA1</text>
<text dominant-baseline="middle"  x="470.924619" y="167.104708" font-size="15">TS1</text>
<text dominant-baseline="middle"  x="111.355869" y="189.647208" font-size="15">M1</text>
<text dominant-baseline="middle"  x="111.355869" y="30.798458" font-size="15">Enter1</text>

</svg>



