
<svg xmlns="http://www.w3.org/2000/svg"  viewBox="0 0 1000 1785.7142857142858" style="overflow: hidden;border: 2px solid #888888;"> 
<text dominant-baseline="middle"  x="142.857143" y="1500.000000" font-size="15">Enter1</text>
<text dominant-baseline="middle"  x="428.571429" y="1500.000000" font-size="15">I1</text>
<text dominant-baseline="middle"  x="500.000000" y="1500.000000" font-size="15">P1</text>
<text dominant-baseline="middle"  x="500.000000" y="1428.571429" font-size="15">I2</text>
<text dominant-baseline="middle"  x="500.000000" y="71.428571" font-size="15">G1</text>
<text dominant-baseline="middle"  x="457.142857" y="285.714286" font-size="15">CM1</text>
<text dominant-baseline="middle"  x="500.000000" y="1071.428571" font-size="15">M1</text>
<text dominant-baseline="middle"  x="500.000000" y="1214.285714" font-size="15">P2</text>
<text dominant-baseline="middle"  x="571.428571" y="785.714286" font-size="15">L1</text>
<text dominant-baseline="middle"  x="571.428571" y="500.000000" font-size="15">M2</text>
<text dominant-baseline="middle"  x="714.285714" y="500.000000" font-size="15">M3</text>
<text dominant-baseline="middle"  x="714.285714" y="857.142857" font-size="15">TS1</text>
<text dominant-baseline="middle"  x="628.571429" y="500.000000" font-size="15">M5</text>
<text dominant-baseline="middle"  x="628.571429" y="742.857143" font-size="15">L2</text>
<text dominant-baseline="middle"  x="628.571429" y="1528.571429" font-size="15">I3</text>
<text dominant-baseline="middle"  x="628.571429" y="1571.428571" font-size="15">M6</text>
<text dominant-baseline="middle"  x="414.285714" y="1571.428571" font-size="15">M7</text>
<text dominant-baseline="middle"  x="414.285714" y="1600.000000" font-size="15">I4</text>
<text dominant-baseline="middle"  x="414.285714" y="1657.142857" font-size="15">SP1</text>
<text dominant-baseline="middle"  x="314.285714" y="1657.142857" font-size="15">PockelsCell</text>
<text dominant-baseline="middle"  x="200.000000" y="1657.142857" font-size="15">M8</text>
<text dominant-baseline="middle"  x="514.285714" y="1657.142857" font-size="15">I5</text>
<text dominant-baseline="middle"  x="557.142857" y="1657.142857" font-size="15">L3</text>
<text dominant-baseline="middle"  x="700.000000" y="1657.142857" font-size="15">M9</text>
<text dominant-baseline="middle"  x="700.000000" y="1600.000000" font-size="15">M10</text>
<text dominant-baseline="middle"  x="785.714286" y="1600.000000" font-size="15">I6</text>
<text dominant-baseline="middle"  x="828.571429" y="1600.000000" font-size="15">Exit</text>
<text dominant-baseline="middle"  x="285.714286" y="1142.857143" font-size="15">CM2</text>
<text dominant-baseline="middle"  x="628.571429" y="1657.142857" font-size="15">Camera1</text>
<text dominant-baseline="middle"  x="700.000000" y="1542.857143" font-size="15">Camera2</text>
<text dominant-baseline="middle"  x="142.857143" y="928.571429" font-size="15">Enter2</text>
<text dominant-baseline="middle"  x="571.428571" y="928.571429" font-size="15">I7</text>
<text dominant-baseline="middle"  x="685.714286" y="928.571429" font-size="15">L4</text>
<text dominant-baseline="middle"  x="714.285714" y="928.571429" font-size="15">M11</text>
<text dominant-baseline="middle"  x="571.428571" y="1071.428571" font-size="15">P3</text>
<polyline points="828,1600 700,1600 700,1657 199,1657 414,1657 414,1571 628,1571 628,500 714,500 714,857 714,500 714,500 571,500 571,1071 500,1071 500,71 285,1142 457,285 285,1142 500,71 500,1214 500,71 285,1142 457,285 285,1142 500,71 500,1500 142,1500 " style="fill:none;stroke:rgb(255,0,0);stroke-width:5;fill-rule:evenodd;" />
<polyline points="714,857 714,928 142,928 " style="fill:none;stroke:rgb(0,255,0);stroke-width:5;fill-rule:evenodd;" />
<polyline points="628,1657 628,1571 " style="fill:none;stroke:rgb(255,0,0);stroke-width:5;fill-rule:evenodd;" />
<polyline points="700,1542 700,1600 " style="fill:none;stroke:rgb(255,0,0);stroke-width:5;fill-rule:evenodd;" />
<text dominant-baseline="middle"  x="571.428571" y="1071.428571" font-size="15">P3</text>
<text dominant-baseline="middle"  x="714.285714" y="928.571429" font-size="15">M11</text>
<text dominant-baseline="middle"  x="685.714286" y="928.571429" font-size="15">L4</text>
<text dominant-baseline="middle"  x="571.428571" y="928.571429" font-size="15">I7</text>
<text dominant-baseline="middle"  x="142.857143" y="928.571429" font-size="15">Enter2</text>
<text dominant-baseline="middle"  x="700.000000" y="1542.857143" font-size="15">Camera2</text>
<text dominant-baseline="middle"  x="628.571429" y="1657.142857" font-size="15">Camera1</text>
<text dominant-baseline="middle"  x="285.714286" y="1142.857143" font-size="15">CM2</text>
<text dominant-baseline="middle"  x="828.571429" y="1600.000000" font-size="15">Exit</text>
<text dominant-baseline="middle"  x="785.714286" y="1600.000000" font-size="15">I6</text>
<text dominant-baseline="middle"  x="700.000000" y="1600.000000" font-size="15">M10</text>
<text dominant-baseline="middle"  x="700.000000" y="1657.142857" font-size="15">M9</text>
<text dominant-baseline="middle"  x="557.142857" y="1657.142857" font-size="15">L3</text>
<text dominant-baseline="middle"  x="514.285714" y="1657.142857" font-size="15">I5</text>
<text dominant-baseline="middle"  x="200.000000" y="1657.142857" font-size="15">M8</text>
<text dominant-baseline="middle"  x="314.285714" y="1657.142857" font-size="15">PockelsCell</text>
<text dominant-baseline="middle"  x="414.285714" y="1657.142857" font-size="15">SP1</text>
<text dominant-baseline="middle"  x="414.285714" y="1600.000000" font-size="15">I4</text>
<text dominant-baseline="middle"  x="414.285714" y="1571.428571" font-size="15">M7</text>
<text dominant-baseline="middle"  x="628.571429" y="1571.428571" font-size="15">M6</text>
<text dominant-baseline="middle"  x="628.571429" y="1528.571429" font-size="15">I3</text>
<text dominant-baseline="middle"  x="628.571429" y="742.857143" font-size="15">L2</text>
<text dominant-baseline="middle"  x="628.571429" y="500.000000" font-size="15">M5</text>
<text dominant-baseline="middle"  x="714.285714" y="857.142857" font-size="15">TS1</text>
<text dominant-baseline="middle"  x="714.285714" y="500.000000" font-size="15">M3</text>
<text dominant-baseline="middle"  x="571.428571" y="500.000000" font-size="15">M2</text>
<text dominant-baseline="middle"  x="571.428571" y="785.714286" font-size="15">L1</text>
<text dominant-baseline="middle"  x="500.000000" y="1214.285714" font-size="15">P2</text>
<text dominant-baseline="middle"  x="500.000000" y="1071.428571" font-size="15">M1</text>
<text dominant-baseline="middle"  x="457.142857" y="285.714286" font-size="15">CM1</text>
<text dominant-baseline="middle"  x="500.000000" y="71.428571" font-size="15">G1</text>
<text dominant-baseline="middle"  x="500.000000" y="1428.571429" font-size="15">I2</text>
<text dominant-baseline="middle"  x="500.000000" y="1500.000000" font-size="15">P1</text>
<text dominant-baseline="middle"  x="428.571429" y="1500.000000" font-size="15">I1</text>
<text dominant-baseline="middle"  x="142.857143" y="1500.000000" font-size="15">Enter1</text>

</svg>



