
<svg xmlns="http://www.w3.org/2000/svg"  viewBox="0 0 1000 360.0" style="overflow: hidden;border: 2px solid #888888;"> 
<text dominant-baseline="middle"  x="680.000000" y="40.000000" font-size="15">Enter</text>
<text dominant-baseline="middle"  x="680.000000" y="168.000000" font-size="15">P1</text>
<text dominant-baseline="middle"  x="488.000000" y="168.000000" font-size="15">S1</text>
<text dominant-baseline="middle"  x="412.000000" y="168.000000" font-size="15">M1</text>
<text dominant-baseline="middle"  x="412.000000" y="184.000000" font-size="15">M2</text>
<text dominant-baseline="middle"  x="685.600000" y="200.000000" font-size="15">MK1</text>
<text dominant-baseline="middle"  x="877.600000" y="240.000000" font-size="15">CM1</text>
<text dominant-baseline="middle"  x="357.600000" y="240.000000" font-size="15">CM2</text>
<text dominant-baseline="middle"  x="453.600000" y="288.000000" font-size="15">MK2</text>
<text dominant-baseline="middle"  x="496.000000" y="288.000000" font-size="15">M3</text>
<text dominant-baseline="middle"  x="497.600000" y="280.000000" font-size="15">M4</text>
<text dominant-baseline="middle"  x="626.400000" y="200.000000" font-size="15">M5</text>
<text dominant-baseline="middle"  x="624.000000" y="212.000000" font-size="15">M6</text>
<text dominant-baseline="middle"  x="794.400000" y="232.000000" font-size="15">M7</text>
<text dominant-baseline="middle"  x="798.400000" y="196.000000" font-size="15">SP1</text>
<text dominant-baseline="middle"  x="798.400000" y="170.400000" font-size="15">PockelsCell</text>
<text dominant-baseline="middle"  x="812.000000" y="52.800000" font-size="15">P2</text>
<text dominant-baseline="middle"  x="740.000000" y="45.600000" font-size="15">M8</text>
<text dominant-baseline="middle"  x="736.000000" y="85.600000" font-size="15">PL1</text>
<text dominant-baseline="middle"  x="728.800000" y="160.800000" font-size="15">SP2</text>
<text dominant-baseline="middle"  x="722.800000" y="220.800000" font-size="15">M9</text>
<text dominant-baseline="middle"  x="513.600000" y="196.000000" font-size="15">P3</text>
<text dominant-baseline="middle"  x="459.200000" y="190.560000" font-size="15">L1</text>
<text dominant-baseline="middle"  x="336.400000" y="176.440000" font-size="15">P4</text>
<text dominant-baseline="middle"  x="361.600000" y="236.000000" font-size="15">M10</text>
<text dominant-baseline="middle"  x="361.600000" y="320.000000" font-size="15">Exit</text>
<text dominant-baseline="middle"  x="55.200000" y="240.000000" font-size="15">Enter2</text>
<text dominant-baseline="middle"  x="122.400000" y="240.000000" font-size="15">L2</text>
<text dominant-baseline="middle"  x="192.000000" y="240.000000" font-size="15">L3</text>
<text dominant-baseline="middle"  x="304.000000" y="240.000000" font-size="15">L4</text>
<text dominant-baseline="middle"  x="937.600000" y="240.000000" font-size="15">M11</text>
<text dominant-baseline="middle"  x="557.600000" y="240.000000" font-size="15">Chamber1</text>
<polyline points="55,240 937,240 55,240 " style="fill:none;stroke:rgb(0,200,0);stroke-width:5;fill-rule:evenodd;" />
<polyline points="361,320 361,236 357,240 877,240 336,176 513,196 877,240 357,240 497,280 495,288 357,240 877,240 624,212 626,200 877,240 357,240 497,280 495,288 357,240 877,240 722,220 740,45 811,52 794,231 877,240 357,240 497,280 495,288 357,240 877,240 624,212 626,200 877,240 357,240 497,280 495,288 357,240 877,240 411,184 411,168 488,168 680,168 680,39 " style="fill:none;stroke:rgb(255,0,0);stroke-width:5;fill-rule:evenodd;" />
<text dominant-baseline="middle"  x="557.600000" y="240.000000" font-size="15">Chamber1</text>
<text dominant-baseline="middle"  x="937.600000" y="240.000000" font-size="15">M11</text>
<text dominant-baseline="middle"  x="304.000000" y="240.000000" font-size="15">L4</text>
<text dominant-baseline="middle"  x="192.000000" y="240.000000" font-size="15">L3</text>
<text dominant-baseline="middle"  x="122.400000" y="240.000000" font-size="15">L2</text>
<text dominant-baseline="middle"  x="55.200000" y="240.000000" font-size="15">Enter2</text>
<text dominant-baseline="middle"  x="361.600000" y="320.000000" font-size="15">Exit</text>
<text dominant-baseline="middle"  x="361.600000" y="236.000000" font-size="15">M10</text>
<text dominant-baseline="middle"  x="336.400000" y="176.440000" font-size="15">P4</text>
<text dominant-baseline="middle"  x="459.200000" y="190.560000" font-size="15">L1</text>
<text dominant-baseline="middle"  x="513.600000" y="196.000000" font-size="15">P3</text>
<text dominant-baseline="middle"  x="722.800000" y="220.800000" font-size="15">M9</text>
<text dominant-baseline="middle"  x="728.800000" y="160.800000" font-size="15">SP2</text>
<text dominant-baseline="middle"  x="736.000000" y="85.600000" font-size="15">PL1</text>
<text dominant-baseline="middle"  x="740.000000" y="45.600000" font-size="15">M8</text>
<text dominant-baseline="middle"  x="812.000000" y="52.800000" font-size="15">P2</text>
<text dominant-baseline="middle"  x="798.400000" y="170.400000" font-size="15">PockelsCell</text>
<text dominant-baseline="middle"  x="798.400000" y="196.000000" font-size="15">SP1</text>
<text dominant-baseline="middle"  x="794.400000" y="232.000000" font-size="15">M7</text>
<text dominant-baseline="middle"  x="624.000000" y="212.000000" font-size="15">M6</text>
<text dominant-baseline="middle"  x="626.400000" y="200.000000" font-size="15">M5</text>
<text dominant-baseline="middle"  x="497.600000" y="280.000000" font-size="15">M4</text>
<text dominant-baseline="middle"  x="496.000000" y="288.000000" font-size="15">M3</text>
<text dominant-baseline="middle"  x="453.600000" y="288.000000" font-size="15">MK2</text>
<text dominant-baseline="middle"  x="357.600000" y="240.000000" font-size="15">CM2</text>
<text dominant-baseline="middle"  x="877.600000" y="240.000000" font-size="15">CM1</text>
<text dominant-baseline="middle"  x="685.600000" y="200.000000" font-size="15">MK1</text>
<text dominant-baseline="middle"  x="412.000000" y="184.000000" font-size="15">M2</text>
<text dominant-baseline="middle"  x="412.000000" y="168.000000" font-size="15">M1</text>
<text dominant-baseline="middle"  x="488.000000" y="168.000000" font-size="15">S1</text>
<text dominant-baseline="middle"  x="680.000000" y="168.000000" font-size="15">P1</text>
<text dominant-baseline="middle"  x="680.000000" y="40.000000" font-size="15">Enter</text>

</svg>



